<?xml version="1.0" encoding="utf-8"?>
<!-- Generator: Adobe Illustrator 27.7.0, SVG Export Plug-In . SVG Version: 6.00 Build 0)  -->
<svg version="1.1" id="Layer_1" xmlns="http://www.w3.org/2000/svg" xmlns:xlink="http://www.w3.org/1999/xlink" x="0px" y="0px"
	 viewBox="0 0 400 397.9" style="enable-background:new 0 0 400 397.9;" xml:space="preserve">
<style type="text/css">
	.st0{fill:#FFFFFF;}
</style>
<path class="st0" d="M198.6,0C97,0,103.3,44,103.3,44l0.1,45.6h96.9v13.7H65c0,0-65-7.4-65,95.1c0,102.4,56.7,98.8,56.7,98.8h33.8
	v-47.6c0,0-1.8-56.7,55.8-56.7h96.1c0,0,54,0.9,54-52.2V53.1C296.5,53.1,304.7,0,198.6,0z M145.1,30.7c9.6,0,17.4,7.8,17.4,17.4
	s-7.8,17.4-17.4,17.4c-9.6,0-17.4-7.8-17.4-17.4c0,0,0,0,0-0.1C127.7,38.5,135.5,30.7,145.1,30.7z"/>
<path class="st0" d="M201.4,397.9c101.6,0,95.2-44,95.2-44l-0.1-45.6h-96.9v-13.7H335c0,0,65,7.4,65-95.1s-56.7-98.8-56.7-98.8
	h-33.9v47.5c0,0,1.8,56.7-55.8,56.7h-96.1c0,0-54-0.9-54,52.2v87.7C103.5,344.8,95.3,397.9,201.4,397.9z M254.9,367.2
	c-9.6,0-17.4-7.8-17.4-17.4c0,0,0,0,0-0.1c0-9.6,7.8-17.4,17.4-17.4s17.4,7.8,17.4,17.4C272.3,359.5,264.5,367.2,254.9,367.2z"/>
</svg>
